<svg xmlns="http://www.w3.org/2000/svg" xmlns:xlink="http://www.w3.org/1999/xlink" width="500" zoomAndPan="magnify" viewBox="0 0 375 374.999991" height="500" preserveAspectRatio="xMidYMid meet" version="1.0"><defs><clipPath id="ed6ff2f141"><path d="M 22.164062 166.519531 L 64.113281 166.519531 L 64.113281 208.46875 L 22.164062 208.46875 Z M 22.164062 166.519531 " clip-rule="nonzero"/></clipPath><clipPath id="8681501bb5"><path d="M 68.660156 166.941406 L 109.714844 166.941406 L 109.714844 208 L 68.660156 208 Z M 68.660156 166.941406 " clip-rule="nonzero"/></clipPath><clipPath id="40c57a31d2"><path d="M 112.632812 167.78125 L 153.6875 167.78125 L 153.6875 208.839844 L 112.632812 208.839844 Z M 112.632812 167.78125 " clip-rule="nonzero"/></clipPath><clipPath id="e5036e8d41"><path d="M 47.234375 182.265625 L 66.273438 182.265625 L 66.273438 193.066406 L 47.234375 193.066406 Z M 47.234375 182.265625 " clip-rule="nonzero"/></clipPath><clipPath id="ed82c598bd"><path d="M 40.320312 163.972656 L 46.273438 163.972656 L 46.273438 211.359375 L 40.320312 211.359375 Z M 40.320312 163.972656 " clip-rule="nonzero"/></clipPath><clipPath id="216d756c1a"><path d="M 86.394531 163.972656 L 92.347656 163.972656 L 92.347656 211.359375 L 86.394531 211.359375 Z M 86.394531 163.972656 " clip-rule="nonzero"/></clipPath><clipPath id="e2776d79e9"><path d="M 112.632812 167.78125 L 132.511719 167.78125 L 132.511719 175.347656 L 112.632812 175.347656 Z M 112.632812 167.78125 " clip-rule="nonzero"/></clipPath><clipPath id="3d6809c12b"><path d="M 120.375 175.347656 L 146.261719 175.347656 L 146.261719 201.230469 L 120.375 201.230469 Z M 120.375 175.347656 " clip-rule="nonzero"/></clipPath><clipPath id="f77a1b6bf4"><path d="M 113.914062 175.34375 L 132.503906 175.34375 L 132.503906 201.722656 L 113.914062 201.722656 Z M 113.914062 175.34375 " clip-rule="nonzero"/></clipPath><clipPath id="67a30b6144"><path d="M 161.320312 166.519531 L 193.757812 166.519531 L 193.757812 175.347656 L 161.320312 175.347656 Z M 161.320312 166.519531 " clip-rule="nonzero"/></clipPath><clipPath id="ec5f5fed6a"><path d="M 161.320312 199.980469 L 193.757812 199.980469 L 193.757812 208.808594 L 161.320312 208.808594 Z M 161.320312 199.980469 " clip-rule="nonzero"/></clipPath><clipPath id="de5d100131"><path d="M 161.320312 182.921875 L 190.898438 182.921875 L 190.898438 191.75 L 161.320312 191.75 Z M 161.320312 182.921875 " clip-rule="nonzero"/></clipPath><clipPath id="7e7e41d36d"><path d="M 76.402344 174.898438 L 102.289062 174.898438 L 102.289062 200.78125 L 76.402344 200.78125 Z M 76.402344 174.898438 " clip-rule="nonzero"/></clipPath><clipPath id="37cf829fa1"><path d="M 30.796875 174.898438 L 56.679688 174.898438 L 56.679688 200.78125 L 30.796875 200.78125 Z M 30.796875 174.898438 " clip-rule="nonzero"/></clipPath><clipPath id="80abb1b4f7"><path d="M 115.246094 201.726562 L 135.128906 201.726562 L 135.128906 209.652344 L 115.246094 209.652344 Z M 115.246094 201.726562 " clip-rule="nonzero"/></clipPath><clipPath id="34632972d6"><path d="M 110.9375 163.972656 L 116.886719 163.972656 L 116.886719 211.359375 L 110.9375 211.359375 Z M 110.9375 163.972656 " clip-rule="nonzero"/></clipPath><clipPath id="bbb3d172b9"><path d="M 198.042969 185.777344 L 219.050781 185.777344 L 219.050781 194.605469 L 198.042969 194.605469 Z M 198.042969 185.777344 " clip-rule="nonzero"/></clipPath><clipPath id="9b8da47e66"><path d="M 220.242188 166.941406 L 259.964844 166.941406 L 259.964844 209.765625 L 220.242188 209.765625 Z M 220.242188 166.941406 " clip-rule="nonzero"/></clipPath><clipPath id="70d5125559"><path d="M 240.101562 166.941406 L 259.964844 209.652344 L 220.242188 209.652344 Z M 240.101562 166.941406 " clip-rule="nonzero"/></clipPath><clipPath id="6954a609c6"><path d="M 226.195312 166.941406 L 265.917969 166.941406 L 265.917969 209.765625 L 226.195312 209.765625 Z M 226.195312 166.941406 " clip-rule="nonzero"/></clipPath><clipPath id="ef1648765a"><path d="M 246.054688 166.941406 L 265.917969 209.652344 L 226.195312 209.652344 Z M 246.054688 166.941406 " clip-rule="nonzero"/></clipPath><clipPath id="9e1b16e021"><path d="M 240.101562 167.78125 L 246.054688 167.78125 L 246.054688 176.609375 L 240.101562 176.609375 Z M 240.101562 167.78125 " clip-rule="nonzero"/></clipPath><clipPath id="0847673b89"><path d="M 234.464844 180.71875 L 251.933594 180.71875 L 251.933594 200 L 234.464844 200 Z M 234.464844 180.71875 " clip-rule="nonzero"/></clipPath><clipPath id="8af44cc1c5"><path d="M 243.199219 180.71875 L 251.933594 199.980469 L 234.464844 199.980469 Z M 243.199219 180.71875 " clip-rule="nonzero"/></clipPath><clipPath id="2d32cadb69"><path d="M 223.8125 194.03125 L 244.824219 194.03125 L 244.824219 199.980469 L 223.8125 199.980469 Z M 223.8125 194.03125 " clip-rule="nonzero"/></clipPath><clipPath id="e959637458"><path d="M 307.164062 166.519531 L 346.886719 166.519531 L 346.886719 209.34375 L 307.164062 209.34375 Z M 307.164062 166.519531 " clip-rule="nonzero"/></clipPath><clipPath id="c3d3f8810b"><path d="M 327.023438 166.519531 L 346.886719 209.230469 L 307.164062 209.230469 Z M 327.023438 166.519531 " clip-rule="nonzero"/></clipPath><clipPath id="7fef770d13"><path d="M 313.117188 166.519531 L 352.835938 166.519531 L 352.835938 209.34375 L 313.117188 209.34375 Z M 313.117188 166.519531 " clip-rule="nonzero"/></clipPath><clipPath id="73aaed3e75"><path d="M 332.976562 166.519531 L 352.835938 209.230469 L 313.117188 209.230469 Z M 332.976562 166.519531 " clip-rule="nonzero"/></clipPath><clipPath id="ff131d4220"><path d="M 327.023438 167.363281 L 332.976562 167.363281 L 332.976562 176.191406 L 327.023438 176.191406 Z M 327.023438 167.363281 " clip-rule="nonzero"/></clipPath><clipPath id="eef2bce8a3"><path d="M 321.382812 180.296875 L 338.855469 180.296875 L 338.855469 199.609375 L 321.382812 199.609375 Z M 321.382812 180.296875 " clip-rule="nonzero"/></clipPath><clipPath id="0e11393d5f"><path d="M 330.121094 180.296875 L 338.855469 199.5625 L 321.382812 199.5625 Z M 330.121094 180.296875 " clip-rule="nonzero"/></clipPath><clipPath id="2fbfb9369a"><path d="M 310.734375 193.609375 L 331.746094 193.609375 L 331.746094 199.5625 L 310.734375 199.5625 Z M 310.734375 193.609375 " clip-rule="nonzero"/></clipPath><clipPath id="e10521cb22"><path d="M 265.90625 163.972656 L 271.855469 163.972656 L 271.855469 211.359375 L 265.90625 211.359375 Z M 265.90625 163.972656 " clip-rule="nonzero"/></clipPath><clipPath id="579af43f5d"><path d="M 264.027344 167.453125 L 305.085938 167.453125 L 305.085938 208.507812 L 264.027344 208.507812 Z M 264.027344 167.453125 " clip-rule="nonzero"/></clipPath><clipPath id="58dfc78944"><path d="M 264.027344 167.453125 L 283.910156 167.453125 L 283.910156 175.019531 L 264.027344 175.019531 Z M 264.027344 167.453125 " clip-rule="nonzero"/></clipPath><clipPath id="528c80ef28"><path d="M 271.773438 175.019531 L 297.65625 175.019531 L 297.65625 200.902344 L 271.773438 200.902344 Z M 271.773438 175.019531 " clip-rule="nonzero"/></clipPath><clipPath id="5a0419e8cc"><path d="M 265.3125 175.015625 L 283.902344 175.015625 L 283.902344 201.390625 L 265.3125 201.390625 Z M 265.3125 175.015625 " clip-rule="nonzero"/></clipPath><clipPath id="54bbcc9ede"><path d="M 266.644531 201.394531 L 286.527344 201.394531 L 286.527344 209.320312 L 266.644531 209.320312 Z M 266.644531 201.394531 " clip-rule="nonzero"/></clipPath><clipPath id="bd96559c7e"><path d="M 262.332031 163.640625 L 268.285156 163.640625 L 268.285156 211.027344 L 262.332031 211.027344 Z M 262.332031 163.640625 " clip-rule="nonzero"/></clipPath></defs><g clip-path="url(#ed6ff2f141)"><path fill="#ffffff" d="M 64.113281 187.496094 C 64.113281 188.183594 64.078125 188.867188 64.011719 189.550781 C 63.945312 190.234375 63.84375 190.914062 63.710938 191.585938 C 63.574219 192.261719 63.410156 192.925781 63.210938 193.585938 C 63.007812 194.242188 62.777344 194.886719 62.515625 195.523438 C 62.253906 196.15625 61.960938 196.777344 61.636719 197.382812 C 61.3125 197.988281 60.960938 198.578125 60.578125 199.148438 C 60.195312 199.71875 59.785156 200.269531 59.351562 200.800781 C 58.914062 201.332031 58.453125 201.839844 57.96875 202.328125 C 57.484375 202.8125 56.976562 203.273438 56.445312 203.710938 C 55.914062 204.144531 55.363281 204.554688 54.789062 204.933594 C 54.21875 205.316406 53.628906 205.667969 53.023438 205.992188 C 52.417969 206.316406 51.800781 206.609375 51.164062 206.875 C 50.53125 207.136719 49.882812 207.367188 49.226562 207.566406 C 48.570312 207.765625 47.902344 207.933594 47.230469 208.066406 C 46.554688 208.203125 45.878906 208.300781 45.195312 208.371094 C 44.507812 208.4375 43.824219 208.46875 43.136719 208.46875 C 42.449219 208.46875 41.765625 208.4375 41.082031 208.371094 C 40.398438 208.300781 39.71875 208.203125 39.046875 208.066406 C 38.371094 207.933594 37.707031 207.765625 37.050781 207.566406 C 36.390625 207.367188 35.746094 207.136719 35.109375 206.875 C 34.476562 206.609375 33.855469 206.316406 33.25 205.992188 C 32.644531 205.667969 32.054688 205.316406 31.484375 204.933594 C 30.914062 204.554688 30.363281 204.144531 29.832031 203.710938 C 29.300781 203.273438 28.792969 202.8125 28.304688 202.328125 C 27.820312 201.839844 27.359375 201.332031 26.921875 200.800781 C 26.488281 200.269531 26.078125 199.71875 25.699219 199.148438 C 25.316406 198.578125 24.964844 197.988281 24.640625 197.382812 C 24.316406 196.777344 24.023438 196.15625 23.757812 195.523438 C 23.496094 194.886719 23.265625 194.242188 23.066406 193.585938 C 22.867188 192.925781 22.699219 192.261719 22.566406 191.585938 C 22.433594 190.914062 22.332031 190.234375 22.265625 189.550781 C 22.195312 188.867188 22.164062 188.183594 22.164062 187.496094 C 22.164062 186.808594 22.195312 186.125 22.265625 185.441406 C 22.332031 184.757812 22.433594 184.078125 22.566406 183.402344 C 22.699219 182.730469 22.867188 182.0625 23.066406 181.40625 C 23.265625 180.75 23.496094 180.101562 23.757812 179.46875 C 24.023438 178.835938 24.316406 178.214844 24.640625 177.609375 C 24.964844 177.003906 25.316406 176.414062 25.699219 175.84375 C 26.078125 175.269531 26.488281 174.71875 26.921875 174.1875 C 27.359375 173.660156 27.820312 173.148438 28.304688 172.664062 C 28.792969 172.179688 29.300781 171.71875 29.832031 171.28125 C 30.363281 170.847656 30.914062 170.4375 31.484375 170.054688 C 32.054688 169.675781 32.644531 169.320312 33.25 168.996094 C 33.855469 168.671875 34.476562 168.378906 35.109375 168.117188 C 35.746094 167.855469 36.390625 167.625 37.050781 167.425781 C 37.707031 167.222656 38.371094 167.058594 39.046875 166.921875 C 39.71875 166.789062 40.398438 166.6875 41.082031 166.621094 C 41.765625 166.554688 42.449219 166.519531 43.136719 166.519531 C 43.824219 166.519531 44.507812 166.554688 45.195312 166.621094 C 45.878906 166.6875 46.554688 166.789062 47.230469 166.921875 C 47.902344 167.058594 48.570312 167.222656 49.226562 167.425781 C 49.882812 167.625 50.53125 167.855469 51.164062 168.117188 C 51.800781 168.378906 52.417969 168.671875 53.023438 168.996094 C 53.628906 169.320312 54.21875 169.675781 54.789062 170.054688 C 55.363281 170.4375 55.914062 170.847656 56.445312 171.28125 C 56.976562 171.71875 57.484375 172.179688 57.96875 172.664062 C 58.453125 173.148438 58.914062 173.660156 59.351562 174.1875 C 59.785156 174.71875 60.195312 175.269531 60.578125 175.84375 C 60.960938 176.414062 61.3125 177.003906 61.636719 177.609375 C 61.960938 178.214844 62.253906 178.835938 62.515625 179.46875 C 62.777344 180.101562 63.007812 180.75 63.210938 181.40625 C 63.410156 182.0625 63.574219 182.730469 63.710938 183.402344 C 63.84375 184.078125 63.945312 184.757812 64.011719 185.441406 C 64.078125 186.125 64.113281 186.808594 64.113281 187.496094 Z M 64.113281 187.496094 " fill-opacity="1" fill-rule="nonzero"/></g><g clip-path="url(#8681501bb5)"><path fill="#ffffff" d="M 109.714844 187.46875 C 109.714844 188.140625 109.683594 188.8125 109.617188 189.480469 C 109.550781 190.152344 109.453125 190.816406 109.320312 191.476562 C 109.191406 192.132812 109.027344 192.785156 108.832031 193.429688 C 108.636719 194.074219 108.410156 194.703125 108.152344 195.324219 C 107.894531 195.945312 107.609375 196.554688 107.292969 197.148438 C 106.972656 197.738281 106.628906 198.316406 106.253906 198.875 C 105.882812 199.433594 105.480469 199.972656 105.054688 200.492188 C 104.628906 201.011719 104.179688 201.511719 103.703125 201.984375 C 103.226562 202.460938 102.730469 202.910156 102.210938 203.339844 C 101.691406 203.765625 101.152344 204.164062 100.59375 204.539062 C 100.03125 204.914062 99.457031 205.257812 98.863281 205.574219 C 98.269531 205.890625 97.664062 206.179688 97.042969 206.4375 C 96.421875 206.691406 95.789062 206.917969 95.144531 207.113281 C 94.503906 207.308594 93.851562 207.472656 93.191406 207.605469 C 92.53125 207.734375 91.867188 207.832031 91.199219 207.898438 C 90.53125 207.964844 89.859375 208 89.1875 208 C 88.515625 208 87.84375 207.964844 87.175781 207.898438 C 86.503906 207.832031 85.839844 207.734375 85.183594 207.605469 C 84.523438 207.472656 83.871094 207.308594 83.226562 207.113281 C 82.585938 206.917969 81.953125 206.691406 81.332031 206.4375 C 80.710938 206.179688 80.101562 205.890625 79.511719 205.574219 C 78.917969 205.257812 78.339844 204.914062 77.78125 204.539062 C 77.222656 204.164062 76.683594 203.765625 76.164062 203.339844 C 75.644531 202.910156 75.148438 202.460938 74.671875 201.984375 C 74.195312 201.511719 73.746094 201.011719 73.316406 200.492188 C 72.890625 199.972656 72.492188 199.433594 72.117188 198.875 C 71.746094 198.316406 71.398438 197.738281 71.082031 197.148438 C 70.765625 196.554688 70.476562 195.945312 70.222656 195.324219 C 69.964844 194.703125 69.738281 194.074219 69.542969 193.429688 C 69.347656 192.785156 69.183594 192.132812 69.054688 191.476562 C 68.921875 190.816406 68.824219 190.152344 68.757812 189.480469 C 68.691406 188.8125 68.660156 188.140625 68.660156 187.46875 C 68.660156 186.796875 68.691406 186.125 68.757812 185.457031 C 68.824219 184.789062 68.921875 184.125 69.054688 183.464844 C 69.183594 182.804688 69.347656 182.152344 69.542969 181.511719 C 69.738281 180.867188 69.964844 180.234375 70.222656 179.613281 C 70.476562 178.992188 70.765625 178.386719 71.082031 177.792969 C 71.398438 177.199219 71.746094 176.625 72.117188 176.066406 C 72.492188 175.507812 72.890625 174.964844 73.316406 174.445312 C 73.746094 173.925781 74.195312 173.429688 74.671875 172.953125 C 75.148438 172.480469 75.644531 172.027344 76.164062 171.601562 C 76.683594 171.175781 77.222656 170.773438 77.78125 170.402344 C 78.339844 170.027344 78.917969 169.683594 79.511719 169.367188 C 80.101562 169.046875 80.710938 168.761719 81.332031 168.503906 C 81.953125 168.246094 82.585938 168.019531 83.226562 167.824219 C 83.871094 167.628906 84.523438 167.46875 85.183594 167.335938 C 85.839844 167.203125 86.503906 167.105469 87.175781 167.039062 C 87.84375 166.972656 88.515625 166.941406 89.1875 166.941406 C 89.859375 166.941406 90.53125 166.972656 91.199219 167.039062 C 91.867188 167.105469 92.53125 167.203125 93.191406 167.335938 C 93.851562 167.46875 94.503906 167.628906 95.144531 167.824219 C 95.789062 168.019531 96.421875 168.246094 97.042969 168.503906 C 97.664062 168.761719 98.269531 169.046875 98.863281 169.367188 C 99.457031 169.683594 100.03125 170.027344 100.59375 170.402344 C 101.152344 170.773438 101.691406 171.175781 102.210938 171.601562 C 102.730469 172.027344 103.226562 172.480469 103.703125 172.953125 C 104.179688 173.429688 104.628906 173.925781 105.054688 174.445312 C 105.480469 174.964844 105.882812 175.507812 106.253906 176.066406 C 106.628906 176.625 106.972656 177.199219 107.292969 177.792969 C 107.609375 178.386719 107.894531 178.992188 108.152344 179.613281 C 108.410156 180.234375 108.636719 180.867188 108.832031 181.511719 C 109.027344 182.152344 109.191406 182.804688 109.320312 183.464844 C 109.453125 184.125 109.550781 184.789062 109.617188 185.457031 C 109.683594 186.125 109.714844 186.796875 109.714844 187.46875 Z M 109.714844 187.46875 " fill-opacity="1" fill-rule="nonzero"/></g><g clip-path="url(#40c57a31d2)"><path fill="#ffffff" d="M 153.6875 188.3125 C 153.6875 188.984375 153.65625 189.65625 153.589844 190.324219 C 153.523438 190.992188 153.425781 191.65625 153.292969 192.316406 C 153.164062 192.976562 153 193.628906 152.804688 194.269531 C 152.609375 194.914062 152.382812 195.546875 152.125 196.167969 C 151.867188 196.789062 151.582031 197.394531 151.265625 197.988281 C 150.945312 198.582031 150.601562 199.15625 150.226562 199.714844 C 149.855469 200.277344 149.453125 200.816406 149.027344 201.335938 C 148.601562 201.855469 148.152344 202.351562 147.675781 202.828125 C 147.199219 203.304688 146.703125 203.753906 146.183594 204.179688 C 145.664062 204.605469 145.125 205.007812 144.5625 205.378906 C 144.003906 205.753906 143.429688 206.097656 142.835938 206.417969 C 142.242188 206.734375 141.636719 207.019531 141.015625 207.277344 C 140.394531 207.535156 139.761719 207.761719 139.117188 207.957031 C 138.476562 208.152344 137.824219 208.3125 137.164062 208.445312 C 136.503906 208.578125 135.839844 208.675781 135.171875 208.742188 C 134.503906 208.808594 133.832031 208.839844 133.160156 208.839844 C 132.488281 208.839844 131.816406 208.808594 131.148438 208.742188 C 130.476562 208.675781 129.8125 208.578125 129.15625 208.445312 C 128.496094 208.3125 127.84375 208.152344 127.199219 207.957031 C 126.558594 207.761719 125.925781 207.535156 125.304688 207.277344 C 124.683594 207.019531 124.074219 206.734375 123.480469 206.417969 C 122.890625 206.097656 122.3125 205.753906 121.753906 205.378906 C 121.195312 205.007812 120.65625 204.605469 120.136719 204.179688 C 119.617188 203.753906 119.117188 203.304688 118.644531 202.828125 C 118.167969 202.351562 117.71875 201.855469 117.289062 201.335938 C 116.863281 200.816406 116.464844 200.277344 116.089844 199.714844 C 115.71875 199.15625 115.371094 198.582031 115.054688 197.988281 C 114.738281 197.394531 114.449219 196.789062 114.195312 196.167969 C 113.9375 195.546875 113.710938 194.914062 113.515625 194.269531 C 113.320312 193.628906 113.15625 192.976562 113.023438 192.316406 C 112.894531 191.65625 112.796875 190.992188 112.730469 190.324219 C 112.664062 189.65625 112.632812 188.984375 112.632812 188.3125 C 112.632812 187.640625 112.664062 186.96875 112.730469 186.300781 C 112.796875 185.628906 112.894531 184.964844 113.023438 184.304688 C 113.15625 183.648438 113.320312 182.996094 113.515625 182.351562 C 113.710938 181.710938 113.9375 181.078125 114.195312 180.457031 C 114.449219 179.835938 114.738281 179.226562 115.054688 178.632812 C 115.371094 178.042969 115.71875 177.464844 116.089844 176.90625 C 116.464844 176.347656 116.863281 175.808594 117.289062 175.289062 C 117.71875 174.769531 118.167969 174.269531 118.644531 173.796875 C 119.117188 173.320312 119.617188 172.871094 120.136719 172.441406 C 120.65625 172.015625 121.195312 171.617188 121.753906 171.242188 C 122.3125 170.871094 122.890625 170.523438 123.480469 170.207031 C 124.074219 169.890625 124.683594 169.601562 125.304688 169.347656 C 125.925781 169.089844 126.558594 168.863281 127.199219 168.667969 C 127.84375 168.472656 128.496094 168.308594 129.15625 168.175781 C 129.8125 168.046875 130.476562 167.949219 131.148438 167.882812 C 131.816406 167.816406 132.488281 167.78125 133.160156 167.78125 C 133.832031 167.78125 134.503906 167.816406 135.171875 167.882812 C 135.839844 167.949219 136.503906 168.046875 137.164062 168.175781 C 137.824219 168.308594 138.476562 168.472656 139.117188 168.667969 C 139.761719 168.863281 140.394531 169.089844 141.015625 169.347656 C 141.636719 169.601562 142.242188 169.890625 142.835938 170.207031 C 143.429688 170.523438 144.003906 170.871094 144.5625 171.242188 C 145.125 171.617188 145.664062 172.015625 146.183594 172.441406 C 146.703125 172.871094 147.199219 173.320312 147.675781 173.796875 C 148.152344 174.269531 148.601562 174.769531 149.027344 175.289062 C 149.453125 175.808594 149.855469 176.347656 150.226562 176.90625 C 150.601562 177.464844 150.945312 178.042969 151.265625 178.632812 C 151.582031 179.226562 151.867188 179.835938 152.125 180.457031 C 152.382812 181.078125 152.609375 181.710938 152.804688 182.351562 C 153 182.996094 153.164062 183.648438 153.292969 184.304688 C 153.425781 184.964844 153.523438 185.628906 153.589844 186.300781 C 153.65625 186.96875 153.6875 187.640625 153.6875 188.3125 Z M 153.6875 188.3125 " fill-opacity="1" fill-rule="nonzero"/></g><g clip-path="url(#e5036e8d41)"><path fill="#50657d" d="M 47.234375 182.265625 L 66.261719 182.265625 L 66.261719 193.066406 L 47.234375 193.066406 Z M 47.234375 182.265625 " fill-opacity="1" fill-rule="nonzero"/></g><g clip-path="url(#ed82c598bd)"><path fill="#50657d" d="M 46.273438 163.972656 L 46.273438 211.359375 L 40.320312 211.359375 L 40.320312 163.972656 Z M 46.273438 163.972656 " fill-opacity="1" fill-rule="nonzero"/></g><g clip-path="url(#216d756c1a)"><path fill="#50657d" d="M 92.347656 163.972656 L 92.347656 211.359375 L 86.394531 211.359375 L 86.394531 163.972656 Z M 92.347656 163.972656 " fill-opacity="1" fill-rule="nonzero"/></g><g clip-path="url(#e2776d79e9)"><path fill="#ffffff" d="M 112.632812 167.78125 L 132.519531 167.78125 L 132.519531 175.347656 L 112.632812 175.347656 Z M 112.632812 167.78125 " fill-opacity="1" fill-rule="nonzero"/></g><g clip-path="url(#3d6809c12b)"><path fill="#50657d" d="M 146.328125 188.324219 C 146.328125 189.175781 146.246094 190.019531 146.082031 190.855469 C 145.914062 191.691406 145.667969 192.503906 145.34375 193.289062 C 145.015625 194.078125 144.617188 194.824219 144.144531 195.535156 C 143.667969 196.242188 143.132812 196.898438 142.527344 197.5 C 141.925781 198.101562 141.269531 198.640625 140.5625 199.113281 C 139.855469 199.589844 139.105469 199.988281 138.320312 200.3125 C 137.53125 200.640625 136.71875 200.886719 135.886719 201.050781 C 135.050781 201.21875 134.207031 201.300781 133.351562 201.300781 C 132.5 201.300781 131.65625 201.21875 130.820312 201.050781 C 129.984375 200.886719 129.175781 200.640625 128.386719 200.3125 C 127.601562 199.988281 126.851562 199.589844 126.144531 199.113281 C 125.433594 198.640625 124.78125 198.101562 124.175781 197.5 C 123.574219 196.898438 123.035156 196.242188 122.5625 195.535156 C 122.089844 194.824219 121.691406 194.078125 121.363281 193.289062 C 121.039062 192.503906 120.792969 191.691406 120.625 190.855469 C 120.460938 190.019531 120.375 189.175781 120.375 188.324219 C 120.375 187.472656 120.460938 186.628906 120.625 185.792969 C 120.792969 184.957031 121.039062 184.144531 121.363281 183.359375 C 121.691406 182.570312 122.089844 181.824219 122.5625 181.117188 C 123.035156 180.40625 123.574219 179.75 124.175781 179.148438 C 124.78125 178.546875 125.433594 178.007812 126.144531 177.535156 C 126.851562 177.0625 127.601562 176.660156 128.386719 176.335938 C 129.175781 176.011719 129.984375 175.765625 130.820312 175.597656 C 131.65625 175.429688 132.5 175.347656 133.351562 175.347656 C 134.207031 175.347656 135.050781 175.429688 135.886719 175.597656 C 136.71875 175.765625 137.53125 176.011719 138.320312 176.335938 C 139.105469 176.660156 139.855469 177.0625 140.5625 177.535156 C 141.269531 178.007812 141.925781 178.546875 142.527344 179.148438 C 143.132812 179.75 143.667969 180.40625 144.144531 181.117188 C 144.617188 181.824219 145.015625 182.570312 145.34375 183.359375 C 145.667969 184.144531 145.914062 184.957031 146.082031 185.792969 C 146.246094 186.628906 146.328125 187.472656 146.328125 188.324219 Z M 146.328125 188.324219 " fill-opacity="1" fill-rule="nonzero"/></g><g clip-path="url(#f77a1b6bf4)"><path fill="#50657d" d="M 132.503906 175.34375 L 132.503906 201.703125 L 113.914062 201.703125 L 113.914062 175.34375 Z M 132.503906 175.34375 " fill-opacity="1" fill-rule="nonzero"/></g><g clip-path="url(#67a30b6144)"><path fill="#ffffff" d="M 161.320312 166.519531 L 193.765625 166.519531 L 193.765625 175.347656 L 161.320312 175.347656 Z M 161.320312 166.519531 " fill-opacity="1" fill-rule="nonzero"/></g><g clip-path="url(#ec5f5fed6a)"><path fill="#ffffff" d="M 161.320312 199.980469 L 193.765625 199.980469 L 193.765625 208.808594 L 161.320312 208.808594 Z M 161.320312 199.980469 " fill-opacity="1" fill-rule="nonzero"/></g><g clip-path="url(#de5d100131)"><path fill="#ffffff" d="M 161.320312 182.921875 L 190.90625 182.921875 L 190.90625 191.75 L 161.320312 191.75 Z M 161.320312 182.921875 " fill-opacity="1" fill-rule="nonzero"/></g><g clip-path="url(#7e7e41d36d)"><path fill="#50657d" d="M 102.359375 187.875 C 102.359375 188.726562 102.273438 189.570312 102.109375 190.40625 C 101.941406 191.242188 101.695312 192.054688 101.371094 192.839844 C 101.042969 193.628906 100.644531 194.375 100.171875 195.082031 C 99.695312 195.792969 99.160156 196.449219 98.558594 197.050781 C 97.953125 197.652344 97.296875 198.191406 96.589844 198.664062 C 95.882812 199.136719 95.132812 199.535156 94.347656 199.863281 C 93.558594 200.1875 92.75 200.433594 91.914062 200.601562 C 91.078125 200.769531 90.234375 200.851562 89.378906 200.851562 C 88.527344 200.851562 87.683594 200.769531 86.847656 200.601562 C 86.011719 200.433594 85.203125 200.1875 84.414062 199.863281 C 83.628906 199.535156 82.878906 199.136719 82.171875 198.664062 C 81.460938 198.191406 80.808594 197.652344 80.203125 197.050781 C 79.601562 196.449219 79.0625 195.792969 78.589844 195.082031 C 78.117188 194.375 77.71875 193.628906 77.390625 192.839844 C 77.066406 192.054688 76.820312 191.242188 76.652344 190.40625 C 76.488281 189.570312 76.402344 188.726562 76.402344 187.875 C 76.402344 187.023438 76.488281 186.179688 76.652344 185.34375 C 76.820312 184.507812 77.066406 183.695312 77.390625 182.90625 C 77.71875 182.121094 78.117188 181.371094 78.589844 180.664062 C 79.0625 179.957031 79.601562 179.300781 80.203125 178.699219 C 80.808594 178.09375 81.460938 177.558594 82.171875 177.085938 C 82.878906 176.609375 83.628906 176.210938 84.414062 175.886719 C 85.203125 175.558594 86.011719 175.3125 86.847656 175.148438 C 87.683594 174.980469 88.527344 174.898438 89.378906 174.898438 C 90.234375 174.898438 91.078125 174.980469 91.914062 175.148438 C 92.75 175.3125 93.558594 175.558594 94.347656 175.886719 C 95.132812 176.210938 95.882812 176.609375 96.589844 177.085938 C 97.296875 177.558594 97.953125 178.09375 98.558594 178.699219 C 99.160156 179.300781 99.695312 179.957031 100.171875 180.664062 C 100.644531 181.371094 101.042969 182.121094 101.371094 182.90625 C 101.695312 183.695312 101.941406 184.507812 102.109375 185.34375 C 102.273438 186.179688 102.359375 187.023438 102.359375 187.875 Z M 102.359375 187.875 " fill-opacity="1" fill-rule="nonzero"/></g><g clip-path="url(#37cf829fa1)"><path fill="#50657d" d="M 56.75 187.875 C 56.75 188.726562 56.667969 189.570312 56.5 190.40625 C 56.335938 191.242188 56.089844 192.054688 55.761719 192.839844 C 55.4375 193.628906 55.039062 194.375 54.5625 195.082031 C 54.089844 195.792969 53.550781 196.449219 52.949219 197.050781 C 52.347656 197.652344 51.691406 198.191406 50.984375 198.664062 C 50.273438 199.136719 49.527344 199.535156 48.738281 199.863281 C 47.953125 200.1875 47.140625 200.433594 46.304688 200.601562 C 45.46875 200.769531 44.625 200.851562 43.773438 200.851562 C 42.921875 200.851562 42.078125 200.769531 41.242188 200.601562 C 40.40625 200.433594 39.59375 200.1875 38.808594 199.863281 C 38.019531 199.535156 37.273438 199.136719 36.566406 198.664062 C 35.855469 198.191406 35.199219 197.652344 34.597656 197.050781 C 33.996094 196.449219 33.457031 195.792969 32.984375 195.082031 C 32.511719 194.375 32.109375 193.628906 31.785156 192.839844 C 31.460938 192.054688 31.214844 191.242188 31.046875 190.40625 C 30.878906 189.570312 30.796875 188.726562 30.796875 187.875 C 30.796875 187.023438 30.878906 186.179688 31.046875 185.34375 C 31.214844 184.507812 31.460938 183.695312 31.785156 182.90625 C 32.109375 182.121094 32.511719 181.371094 32.984375 180.664062 C 33.457031 179.957031 33.996094 179.300781 34.597656 178.699219 C 35.199219 178.09375 35.855469 177.558594 36.566406 177.085938 C 37.273438 176.609375 38.019531 176.210938 38.808594 175.886719 C 39.59375 175.558594 40.40625 175.3125 41.242188 175.148438 C 42.078125 174.980469 42.921875 174.898438 43.773438 174.898438 C 44.625 174.898438 45.46875 174.980469 46.304688 175.148438 C 47.140625 175.3125 47.953125 175.558594 48.738281 175.886719 C 49.527344 176.210938 50.273438 176.609375 50.984375 177.085938 C 51.691406 177.558594 52.347656 178.09375 52.949219 178.699219 C 53.550781 179.300781 54.089844 179.957031 54.5625 180.664062 C 55.039062 181.371094 55.4375 182.121094 55.761719 182.90625 C 56.089844 183.695312 56.335938 184.507812 56.5 185.34375 C 56.667969 186.179688 56.75 187.023438 56.75 187.875 Z M 56.75 187.875 " fill-opacity="1" fill-rule="nonzero"/></g><g clip-path="url(#80abb1b4f7)"><path fill="#ffffff" d="M 115.246094 201.726562 L 135.125 201.726562 L 135.125 209.652344 L 115.246094 209.652344 Z M 115.246094 201.726562 " fill-opacity="1" fill-rule="nonzero"/></g><g clip-path="url(#34632972d6)"><path fill="#50657d" d="M 116.886719 163.972656 L 116.886719 211.359375 L 110.9375 211.359375 L 110.9375 163.972656 Z M 116.886719 163.972656 " fill-opacity="1" fill-rule="nonzero"/></g><g clip-path="url(#bbb3d172b9)"><path fill="#ffffff" d="M 198.042969 185.777344 L 219.042969 185.777344 L 219.042969 194.605469 L 198.042969 194.605469 Z M 198.042969 185.777344 " fill-opacity="1" fill-rule="nonzero"/></g><g clip-path="url(#9b8da47e66)"><g clip-path="url(#70d5125559)"><path fill="#ffffff" d="M 220.242188 166.941406 L 259.964844 166.941406 L 259.964844 209.609375 L 220.242188 209.609375 Z M 220.242188 166.941406 " fill-opacity="1" fill-rule="nonzero"/></g></g><g clip-path="url(#6954a609c6)"><g clip-path="url(#ef1648765a)"><path fill="#ffffff" d="M 226.195312 166.941406 L 265.917969 166.941406 L 265.917969 209.609375 L 226.195312 209.609375 Z M 226.195312 166.941406 " fill-opacity="1" fill-rule="nonzero"/></g></g><g clip-path="url(#9e1b16e021)"><path fill="#ffffff" d="M 240.101562 167.78125 L 246.054688 167.78125 L 246.054688 176.617188 L 240.101562 176.617188 Z M 240.101562 167.78125 " fill-opacity="1" fill-rule="nonzero"/></g><g clip-path="url(#0847673b89)"><g clip-path="url(#8af44cc1c5)"><path fill="#50657d" d="M 234.464844 180.71875 L 251.933594 180.71875 L 251.933594 199.960938 L 234.464844 199.960938 Z M 234.464844 180.71875 " fill-opacity="1" fill-rule="nonzero"/></g></g><g clip-path="url(#2d32cadb69)"><path fill="#50657d" d="M 223.8125 194.03125 L 244.832031 194.03125 L 244.832031 199.980469 L 223.8125 199.980469 Z M 223.8125 194.03125 " fill-opacity="1" fill-rule="nonzero"/></g><g clip-path="url(#e959637458)"><g clip-path="url(#c3d3f8810b)"><path fill="#ffffff" d="M 307.164062 166.519531 L 346.886719 166.519531 L 346.886719 209.191406 L 307.164062 209.191406 Z M 307.164062 166.519531 " fill-opacity="1" fill-rule="nonzero"/></g></g><g clip-path="url(#7fef770d13)"><g clip-path="url(#73aaed3e75)"><path fill="#ffffff" d="M 313.117188 166.519531 L 352.835938 166.519531 L 352.835938 209.191406 L 313.117188 209.191406 Z M 313.117188 166.519531 " fill-opacity="1" fill-rule="nonzero"/></g></g><g clip-path="url(#ff131d4220)"><path fill="#ffffff" d="M 327.023438 167.363281 L 332.976562 167.363281 L 332.976562 176.199219 L 327.023438 176.199219 Z M 327.023438 167.363281 " fill-opacity="1" fill-rule="nonzero"/></g><g clip-path="url(#eef2bce8a3)"><g clip-path="url(#0e11393d5f)"><path fill="#50657d" d="M 321.382812 180.296875 L 338.855469 180.296875 L 338.855469 199.539062 L 321.382812 199.539062 Z M 321.382812 180.296875 " fill-opacity="1" fill-rule="nonzero"/></g></g><g clip-path="url(#2fbfb9369a)"><path fill="#50657d" d="M 310.734375 193.609375 L 331.753906 193.609375 L 331.753906 199.5625 L 310.734375 199.5625 Z M 310.734375 193.609375 " fill-opacity="1" fill-rule="nonzero"/></g><g clip-path="url(#e10521cb22)"><path fill="#50657d" d="M 271.855469 163.972656 L 271.855469 211.359375 L 265.90625 211.359375 L 265.90625 163.972656 Z M 271.855469 163.972656 " fill-opacity="1" fill-rule="nonzero"/></g><g clip-path="url(#579af43f5d)"><path fill="#ffffff" d="M 305.085938 187.980469 C 305.085938 188.652344 305.050781 189.324219 304.984375 189.992188 C 304.921875 190.664062 304.820312 191.328125 304.691406 191.984375 C 304.558594 192.644531 304.394531 193.296875 304.199219 193.941406 C 304.003906 194.582031 303.78125 195.214844 303.523438 195.835938 C 303.265625 196.457031 302.976562 197.066406 302.660156 197.65625 C 302.34375 198.25 302 198.828125 301.625 199.386719 C 301.25 199.945312 300.851562 200.484375 300.425781 201.003906 C 300 201.523438 299.546875 202.019531 299.070312 202.496094 C 298.597656 202.972656 298.097656 203.421875 297.578125 203.851562 C 297.058594 204.277344 296.519531 204.675781 295.960938 205.050781 C 295.402344 205.421875 294.828125 205.769531 294.234375 206.085938 C 293.640625 206.402344 293.035156 206.691406 292.414062 206.945312 C 291.792969 207.203125 291.160156 207.429688 290.515625 207.625 C 289.871094 207.820312 289.222656 207.984375 288.5625 208.113281 C 287.902344 208.246094 287.238281 208.34375 286.570312 208.410156 C 285.898438 208.476562 285.230469 208.507812 284.554688 208.507812 C 283.882812 208.507812 283.214844 208.476562 282.542969 208.410156 C 281.875 208.34375 281.210938 208.246094 280.550781 208.113281 C 279.890625 207.984375 279.242188 207.820312 278.597656 207.625 C 277.953125 207.429688 277.320312 207.203125 276.699219 206.945312 C 276.078125 206.691406 275.472656 206.402344 274.878906 206.085938 C 274.285156 205.769531 273.710938 205.421875 273.152344 205.050781 C 272.59375 204.675781 272.054688 204.277344 271.535156 203.851562 C 271.011719 203.421875 270.515625 202.972656 270.039062 202.496094 C 269.566406 202.019531 269.113281 201.523438 268.6875 201.003906 C 268.261719 200.484375 267.859375 199.945312 267.488281 199.386719 C 267.113281 198.828125 266.769531 198.25 266.453125 197.65625 C 266.136719 197.066406 265.847656 196.457031 265.589844 195.835938 C 265.332031 195.214844 265.105469 194.582031 264.910156 193.941406 C 264.714844 193.296875 264.554688 192.644531 264.421875 191.984375 C 264.292969 191.328125 264.191406 190.664062 264.125 189.992188 C 264.0625 189.324219 264.027344 188.652344 264.027344 187.980469 C 264.027344 187.308594 264.0625 186.636719 264.125 185.96875 C 264.191406 185.300781 264.292969 184.636719 264.421875 183.976562 C 264.554688 183.316406 264.714844 182.664062 264.910156 182.023438 C 265.105469 181.378906 265.332031 180.746094 265.589844 180.125 C 265.847656 179.503906 266.136719 178.898438 266.453125 178.304688 C 266.769531 177.710938 267.113281 177.136719 267.488281 176.574219 C 267.859375 176.015625 268.261719 175.476562 268.6875 174.957031 C 269.113281 174.4375 269.566406 173.941406 270.039062 173.464844 C 270.515625 172.988281 271.011719 172.539062 271.535156 172.113281 C 272.054688 171.6875 272.59375 171.285156 273.152344 170.914062 C 273.710938 170.539062 274.285156 170.195312 274.878906 169.875 C 275.472656 169.558594 276.078125 169.273438 276.699219 169.015625 C 277.320312 168.757812 277.953125 168.53125 278.597656 168.335938 C 279.242188 168.140625 279.890625 167.976562 280.550781 167.847656 C 281.210938 167.714844 281.875 167.617188 282.542969 167.550781 C 283.214844 167.484375 283.882812 167.453125 284.554688 167.453125 C 285.230469 167.453125 285.898438 167.484375 286.570312 167.550781 C 287.238281 167.617188 287.902344 167.714844 288.5625 167.847656 C 289.222656 167.976562 289.871094 168.140625 290.515625 168.335938 C 291.160156 168.53125 291.792969 168.757812 292.414062 169.015625 C 293.035156 169.273438 293.640625 169.558594 294.234375 169.875 C 294.828125 170.195312 295.402344 170.539062 295.960938 170.914062 C 296.519531 171.285156 297.058594 171.6875 297.578125 172.113281 C 298.097656 172.539062 298.597656 172.988281 299.070312 173.464844 C 299.546875 173.941406 300 174.4375 300.425781 174.957031 C 300.851562 175.476562 301.25 176.015625 301.625 176.574219 C 302 177.136719 302.34375 177.710938 302.660156 178.304688 C 302.976562 178.898438 303.265625 179.503906 303.523438 180.125 C 303.78125 180.746094 304.003906 181.378906 304.199219 182.023438 C 304.394531 182.664062 304.558594 183.316406 304.691406 183.976562 C 304.820312 184.636719 304.921875 185.300781 304.984375 185.96875 C 305.050781 186.636719 305.085938 187.308594 305.085938 187.980469 Z M 305.085938 187.980469 " fill-opacity="1" fill-rule="nonzero"/></g><g clip-path="url(#58dfc78944)"><path fill="#ffffff" d="M 264.027344 167.453125 L 283.914062 167.453125 L 283.914062 175.019531 L 264.027344 175.019531 Z M 264.027344 167.453125 " fill-opacity="1" fill-rule="nonzero"/></g><g clip-path="url(#528c80ef28)"><path fill="#50657d" d="M 297.726562 187.996094 C 297.726562 188.847656 297.644531 189.691406 297.476562 190.527344 C 297.3125 191.363281 297.066406 192.171875 296.738281 192.960938 C 296.414062 193.746094 296.011719 194.496094 295.539062 195.203125 C 295.066406 195.914062 294.527344 196.566406 293.925781 197.171875 C 293.324219 197.773438 292.667969 198.3125 291.960938 198.785156 C 291.25 199.257812 290.503906 199.65625 289.714844 199.984375 C 288.929688 200.308594 288.117188 200.554688 287.28125 200.722656 C 286.445312 200.886719 285.601562 200.972656 284.75 200.972656 C 283.898438 200.972656 283.054688 200.886719 282.21875 200.722656 C 281.382812 200.554688 280.570312 200.308594 279.785156 199.984375 C 278.996094 199.65625 278.25 199.257812 277.539062 198.785156 C 276.832031 198.3125 276.175781 197.773438 275.574219 197.171875 C 274.972656 196.566406 274.433594 195.914062 273.960938 195.203125 C 273.488281 194.496094 273.085938 193.746094 272.761719 192.960938 C 272.433594 192.171875 272.1875 191.363281 272.023438 190.527344 C 271.855469 189.691406 271.773438 188.847656 271.773438 187.996094 C 271.773438 187.140625 271.855469 186.296875 272.023438 185.460938 C 272.1875 184.628906 272.433594 183.816406 272.761719 183.027344 C 273.085938 182.242188 273.488281 181.492188 273.960938 180.785156 C 274.433594 180.078125 274.972656 179.421875 275.574219 178.820312 C 276.175781 178.214844 276.832031 177.679688 277.539062 177.203125 C 278.25 176.730469 278.996094 176.332031 279.785156 176.003906 C 280.570312 175.679688 281.382812 175.433594 282.21875 175.265625 C 283.054688 175.101562 283.898438 175.015625 284.75 175.015625 C 285.601562 175.015625 286.445312 175.101562 287.28125 175.265625 C 288.117188 175.433594 288.929688 175.679688 289.714844 176.003906 C 290.503906 176.332031 291.25 176.730469 291.960938 177.203125 C 292.667969 177.679688 293.324219 178.214844 293.925781 178.820312 C 294.527344 179.421875 295.066406 180.078125 295.539062 180.785156 C 296.011719 181.492188 296.414062 182.242188 296.738281 183.027344 C 297.066406 183.816406 297.3125 184.628906 297.476562 185.460938 C 297.644531 186.296875 297.726562 187.140625 297.726562 187.996094 Z M 297.726562 187.996094 " fill-opacity="1" fill-rule="nonzero"/></g><g clip-path="url(#5a0419e8cc)"><path fill="#50657d" d="M 283.902344 175.015625 L 283.902344 201.371094 L 265.3125 201.371094 L 265.3125 175.015625 Z M 283.902344 175.015625 " fill-opacity="1" fill-rule="nonzero"/></g><g clip-path="url(#54bbcc9ede)"><path fill="#ffffff" d="M 266.644531 201.394531 L 286.519531 201.394531 L 286.519531 209.320312 L 266.644531 209.320312 Z M 266.644531 201.394531 " fill-opacity="1" fill-rule="nonzero"/></g><g clip-path="url(#bd96559c7e)"><path fill="#50657d" d="M 268.285156 163.640625 L 268.285156 211.027344 L 262.332031 211.027344 L 262.332031 163.640625 Z M 268.285156 163.640625 " fill-opacity="1" fill-rule="nonzero"/></g></svg>